<?xml version="1.0" encoding="UTF-8"?>
<svg version="1.1" xmlns="http://www.w3.org/2000/svg" width="844" height="190">
<path d="M0 0 C10.56 0 21.12 0 32 0 C32 18.15 32 36.3 32 55 C32.99 54.67 33.98 54.34 35 54 C36.46182331 53.90880453 37.92742546 53.87210388 39.39208984 53.87060547 C40.27665863 53.86745331 41.16122742 53.86430115 42.07260132 53.86105347 C43.02575226 53.8630777 43.9789032 53.86510193 44.9609375 53.8671875 C45.94365631 53.86623077 46.92637512 53.86527405 47.93887329 53.86428833 C50.0184943 53.86360763 52.09811744 53.86545426 54.17773438 53.86962891 C57.3555176 53.87496727 60.53315875 53.86968608 63.7109375 53.86328125 C65.73177114 53.86394228 67.7526047 53.86522394 69.7734375 53.8671875 C70.72253998 53.86516327 71.67164246 53.86313904 72.64950562 53.86105347 C73.54037872 53.86420563 74.43125183 53.86735779 75.34912109 53.87060547 C76.12838959 53.87140106 76.90765808 53.87219666 77.71054077 53.87301636 C80.21459602 54.01190245 82.55470115 54.45554566 85 55 C84.67 54.01 84.34 53.02 84 52 C83.90404268 50.5489124 83.86192003 49.09388756 83.85473633 47.63964844 C83.84835648 46.76153503 83.84197662 45.88342163 83.83540344 44.97869873 C83.83429062 44.0318219 83.8331778 43.08494507 83.83203125 42.109375 C83.82703865 40.6424118 83.82703865 40.6424118 83.82194519 39.14581299 C83.81688029 37.07458974 83.81453673 35.00335834 83.81469727 32.93212891 C83.81251811 29.77622855 83.79437793 26.62068191 83.77539062 23.46484375 C83.77245508 21.45052203 83.77047136 19.43619864 83.76953125 17.421875 C83.76234573 16.48309509 83.75516022 15.54431519 83.74775696 14.5770874 C83.76590989 9.32158941 84.27893975 4.97432028 86 0 C90.39656173 -0.02465504 94.7930872 -0.04283842 99.18969727 -0.05493164 C100.68644918 -0.05997121 102.18319616 -0.06680287 103.67993164 -0.07543945 C105.82699807 -0.08752159 107.97399962 -0.09323191 110.12109375 -0.09765625 C112.06133423 -0.10551147 112.06133423 -0.10551147 114.04077148 -0.11352539 C117 0 117 0 118 1 C118.09643778 2.82227687 118.12187371 4.6483336 118.12025452 6.47315979 C118.12231651 8.25481537 118.12231651 8.25481537 118.12442017 10.07246399 C118.11902725 12.04475227 118.11902725 12.04475227 118.11352539 14.05688477 C118.11324352 15.44617714 118.11340125 16.83546967 118.1139679 18.22476196 C118.11425588 22.00765289 118.10835901 25.79051238 118.10139394 29.57339597 C118.09516055 33.52255677 118.09455661 37.47171822 118.09336853 41.42088318 C118.09025517 48.90425075 118.08204172 56.38760379 118.07201904 63.87096494 C118.06085805 72.38835733 118.05534749 80.9057504 118.05032361 89.42314827 C118.03985911 106.94877544 118.02151357 124.47438267 118 142 C107.11 142 96.22 142 85 142 C83.87471317 132.99770532 83.87471317 132.99770532 83.87060547 128.84082031 C83.86745331 127.91335999 83.86430115 126.98589966 83.86105347 126.03033447 C83.86408981 124.56899078 83.86408981 124.56899078 83.8671875 123.078125 C83.86623077 122.05571716 83.86527405 121.03330933 83.86428833 119.97991943 C83.86361119 117.83182717 83.86543279 115.6837328 83.86962891 113.53564453 C83.87500593 110.24637285 83.86965675 106.95723635 83.86328125 103.66796875 C83.86394168 101.57552053 83.86522212 99.4830724 83.8671875 97.390625 C83.86516327 96.40829895 83.86313904 95.4259729 83.86105347 94.41387939 C83.86578171 93.04160187 83.86578171 93.04160187 83.87060547 91.64160156 C83.87140106 90.8396637 83.87219666 90.03772583 83.87301636 89.21148682 C84 87 84 87 85 83 C67.51 83 50.02 83 32 83 C32 102.47 32 121.94 32 142 C21.11 142 10.22 142 -1 142 C-1.95843527 138.16625891 -2.20133302 135.01022887 -2.31640625 131.07421875 C-2.33727798 130.36388489 -2.35814972 129.65355103 -2.37965393 128.92169189 C-2.44710048 126.51041756 -2.50573017 124.09904849 -2.5625 121.6875 C-2.58334656 120.84164337 -2.60419312 119.99578674 -2.62567139 119.1242981 C-3.03265261 102.07563083 -3.10944713 85.02518731 -3.12293625 67.97244644 C-3.12495992 65.9770211 -3.12888229 63.98159797 -3.13284302 61.98617554 C-3.15478813 47.95155978 -3.05757479 33.92115647 -2.67306137 19.89151192 C-2.6361496 18.52064162 -2.60217146 17.14968882 -2.57129288 15.77866936 C-2.5270526 13.88027342 -2.46867265 11.98222293 -2.40966797 10.08422852 C-2.37904266 9.00335464 -2.34841736 7.92248077 -2.31686401 6.80885315 C-2 4 -2 4 0 0 Z " fill="#ffffff" transform="translate(338,22)"/>
<path d="M0 0 C1.18215591 -0.00953201 2.36431183 -0.01906403 3.58229065 -0.02888489 C4.85314011 -0.02797348 6.12398956 -0.02706207 7.43334961 -0.02612305 C8.75177353 -0.03040817 10.07019745 -0.0346933 11.42857361 -0.03910828 C14.22016417 -0.04655993 17.0116283 -0.04628924 19.80322266 -0.04101562 C23.34783382 -0.03525614 26.89191643 -0.05207064 30.43644047 -0.0753603 C33.18974237 -0.09024065 35.94292163 -0.09094959 38.69625664 -0.08785057 C40.62801805 -0.08860154 42.55976065 -0.10237458 44.49147034 -0.11653137 C55.21661659 -0.06105594 65.23405177 1.635614 74.71069336 6.8371582 C75.65803345 7.35379028 75.65803345 7.35379028 76.62451172 7.88085938 C86.06539007 13.31277978 93.10399147 22.1127276 97.02319336 32.2746582 C99.21738382 44.55693142 99.4968115 59.78473822 92.94116211 70.70043945 C86.45702552 79.40318082 79.2690332 85.43831635 69.02319336 89.2746582 C68.03319336 89.2746582 67.04319336 89.2746582 66.02319336 89.2746582 C66.77342773 90.3162207 67.52366211 91.3577832 68.29663086 92.4309082 C73.47465482 99.66754149 78.52083334 106.92156697 83.14819336 114.5246582 C88.10743575 122.65416966 93.76122179 130.08941489 99.80834961 137.4465332 C101.02319336 139.2746582 101.02319336 139.2746582 101.02319336 142.2746582 C96.43344874 142.39877761 91.84469249 142.48923697 87.25366211 142.54931641 C85.69391857 142.57437448 84.13429146 142.60843122 82.57495117 142.65185547 C80.32563493 142.71290013 78.07787776 142.74095246 75.82788086 142.76293945 C75.13701385 142.78874588 74.44614685 142.81455231 73.73434448 142.84114075 C69.80981757 142.84338559 68.00596469 142.26281805 64.73925781 140.01782227 C62.45442623 137.71019372 60.55758977 135.58500261 58.76147461 132.89575195 C58.20596924 132.06591797 57.65046387 131.23608398 57.078125 130.38110352 C56.50312256 129.50035156 55.92812012 128.61959961 55.33569336 127.7121582 C54.72266357 126.79917969 54.10963379 125.88620117 53.47802734 124.94555664 C50.3819797 120.24932722 47.5932292 115.57302299 45.19506836 110.48168945 C44.75122803 109.56524658 44.3073877 108.64880371 43.85009766 107.70458984 C43.02848215 105.9631584 42.25564503 104.19756866 41.54199219 102.40917969 C40.25887032 99.70745103 39.37913932 98.14140057 37.02319336 96.2746582 C31.9705294 95.23375457 27.16529866 95.12656687 22.02319336 95.2746582 C22.02541397 95.8487291 22.02763458 96.42279999 22.02992249 97.01426697 C22.05197593 102.9671873 22.0671002 108.92009611 22.078125 114.87304688 C22.08316653 117.09733552 22.08999959 119.32162083 22.09863281 121.54589844 C22.11070634 124.73544129 22.11642332 127.92494049 22.12084961 131.11450195 C22.12601089 132.11553452 22.13117218 133.11656708 22.13648987 134.14793396 C22.1365654 135.06881302 22.13664093 135.98969208 22.13671875 136.93847656 C22.13893936 137.75344101 22.14115997 138.56840546 22.14344788 139.4080658 C22.02319336 141.2746582 22.02319336 141.2746582 21.02319336 142.2746582 C18.74371544 142.3748675 16.46112201 142.40547124 14.17944336 142.4074707 C13.1530072 142.40890579 13.1530072 142.40890579 12.10583496 142.41036987 C10.65657459 142.4110515 9.20731118 142.40919843 7.75805664 142.4050293 C5.53256408 142.39968072 3.30727335 142.4049748 1.08178711 142.41137695 C-0.32316126 142.41071617 -1.72810949 142.409435 -3.13305664 142.4074707 C-4.42018555 142.40634277 -5.70731445 142.40521484 -7.03344727 142.40405273 C-9.97680664 142.2746582 -9.97680664 142.2746582 -10.97680664 141.2746582 C-11.07319848 139.47771782 -11.09868089 137.67694928 -11.09706116 135.87742615 C-11.09843582 134.70648407 -11.09981049 133.53554199 -11.10122681 132.32911682 C-11.09763153 131.03295944 -11.09403625 129.73680206 -11.09033203 128.40136719 C-11.09005016 127.03177899 -11.09020789 125.66219065 -11.09077454 124.29260254 C-11.09106252 120.56342872 -11.08516573 116.8342868 -11.07820058 113.10512042 C-11.07196711 109.21201408 -11.07136325 105.31890707 -11.07017517 101.42579651 C-11.06706183 94.04867674 -11.05884842 86.67157171 -11.04882568 79.29445845 C-11.03766462 70.89798277 -11.03215411 62.50150641 -11.02713025 54.10502517 C-11.0166658 36.82822764 -10.99906632 19.55144448 -10.97680664 2.2746582 C-7.10312252 0.63410246 -4.22464874 0.01878169 0 0 Z M22.02319336 29.2746582 C22.02319336 41.8146582 22.02319336 54.3546582 22.02319336 67.2746582 C40.8320397 68.45980579 40.8320397 68.45980579 58.02319336 62.2746582 C61.34243831 57.90314198 64.64323027 52.75758096 64.14819336 47.0871582 C62.19958713 40.48354819 60.14868877 34.97844612 54.02319336 31.2746582 C47.45443702 28.76201917 41.04382389 29.04760502 34.08569336 29.1496582 C28.11475586 29.2115332 28.11475586 29.2115332 22.02319336 29.2746582 Z " fill="#ffffff" transform="translate(612.976806640625,21.725341796875)"/>
<path d="M0 0 C0.86573135 -0.00175232 1.73146271 -0.00350464 2.62342834 -0.00531006 C5.4706526 -0.00969373 8.31781423 -0.00680391 11.16503906 -0.00341797 C13.1470745 -0.00409176 15.12910986 -0.00506242 17.11114502 -0.00631714 C21.25688466 -0.00778918 25.40260271 -0.00565449 29.54833984 -0.00097656 C34.87050966 0.00473534 40.19262921 0.00142937 45.51479721 -0.00454903 C49.60331606 -0.00815526 53.6918229 -0.00701602 57.7803421 -0.00442123 C59.74361426 -0.00375291 61.70688749 -0.0045771 63.67015839 -0.00690079 C66.40643728 -0.00942992 69.14263354 -0.00558367 71.87890625 0 C72.69450516 -0.00202423 73.51010406 -0.00404846 74.35041809 -0.00613403 C79.95212957 0.01512728 79.95212957 0.01512728 82.18066406 1.12939453 C82.20952745 5.60854781 82.22741594 10.08767744 82.24316406 14.56689453 C82.25154297 15.84628906 82.25992188 17.12568359 82.26855469 18.44384766 C82.27177734 19.65878906 82.275 20.87373047 82.27832031 22.12548828 C82.28355713 23.25140381 82.28879395 24.37731934 82.29418945 25.53735352 C82.18066406 28.12939453 82.18066406 28.12939453 81.18066406 29.12939453 C79.18634677 29.22344595 77.18866863 29.24682703 75.19213867 29.24291992 C73.91088608 29.24284439 72.62963348 29.24276886 71.30955505 29.24269104 C69.90070559 29.23758363 68.49185651 29.23236762 67.08300781 29.22705078 C65.64954172 29.22518655 64.21607499 29.22376267 62.78260803 29.22276306 C59.0030645 29.21893825 55.22355916 29.2091083 51.44403076 29.19805908 C47.58997108 29.18784416 43.73590524 29.18326527 39.88183594 29.17822266 C32.31475918 29.16748598 24.74772183 29.1498895 17.18066406 29.12939453 C17.18066406 38.03939453 17.18066406 46.94939453 17.18066406 56.12939453 C35.99066406 56.12939453 54.80066406 56.12939453 74.18066406 56.12939453 C76.01108132 65.28148084 74.58607816 74.80487039 74.18066406 84.12939453 C55.37066406 84.12939453 36.56066406 84.12939453 17.18066406 84.12939453 C17.18066406 93.69939453 17.18066406 103.26939453 17.18066406 113.12939453 C19.16066406 112.63439453 19.16066406 112.63439453 21.18066406 112.12939453 C23.08392621 112.03839957 24.99007226 112.00150181 26.89550781 112 C28.04349854 111.99684784 29.19148926 111.99369568 30.37426758 111.990448 C32.22749634 111.99348434 32.22749634 111.99348434 34.11816406 111.99658203 C35.39038818 111.99562531 36.6626123 111.99466858 37.97338867 111.99368286 C40.66328331 111.99300235 43.3530871 111.99434556 46.04296875 111.99902344 C49.48620756 112.00472046 52.92936842 112.00143898 56.37260437 111.99545097 C59.66279371 111.99096321 62.9529737 111.99410777 66.24316406 111.99658203 C67.4786499 111.9945578 68.71413574 111.99253357 69.98706055 111.990448 C71.70904663 111.99517624 71.70904663 111.99517624 73.46582031 112 C74.97994507 112.00119339 74.97994507 112.00119339 76.5246582 112.00241089 C79.18066406 112.12939453 79.18066406 112.12939453 83.18066406 113.12939453 C83.18066406 122.69939453 83.18066406 132.26939453 83.18066406 142.12939453 C50.84066406 142.12939453 18.50066406 142.12939453 -14.81933594 142.12939453 C-15.51382784 137.96244311 -15.94467748 134.62920037 -15.94631958 130.50621033 C-15.9491394 129.41134811 -15.95195923 128.3164859 -15.9548645 127.18844604 C-15.95284027 126.00227692 -15.95081604 124.81610779 -15.94873047 123.59399414 C-15.95048279 122.33318527 -15.95223511 121.0723764 -15.95404053 119.77336121 C-15.95858601 116.32719986 -15.95683731 112.88106857 -15.95366144 109.43490672 C-15.95112347 105.82310453 -15.95347933 102.21130486 -15.95504761 98.59950256 C-15.95686487 92.5361383 -15.95447436 86.47278624 -15.94970703 80.40942383 C-15.94426281 73.40435304 -15.94603001 66.39931136 -15.95153344 59.39424127 C-15.95607425 53.37285804 -15.95671044 47.35148356 -15.95409477 41.33009917 C-15.95253765 37.736769 -15.95232281 34.1434525 -15.95563126 30.55012321 C-15.95906139 26.54519812 -15.95430441 22.54032307 -15.94873047 18.53540039 C-15.9507547 17.34720703 -15.95277893 16.15901367 -15.9548645 14.93481445 C-15.95204468 13.84277206 -15.94922485 12.75072968 -15.94631958 11.62559509 C-15.94594255 10.67933227 -15.94556553 9.73306944 -15.94517708 8.75813198 C-15.81900594 6.12250106 -15.4055725 3.69859902 -14.81933594 1.12939453 C-9.82470503 0.12607388 -5.06762812 -0.01270344 0 0 Z " fill="#ffffff" transform="translate(495.8193359375,21.87060546875)"/>
<path d="M0 0 C1.229534 -0.0127597 2.45906799 -0.02551941 3.7258606 -0.03866577 C5.07879479 -0.04172739 6.43173109 -0.04395303 7.78466797 -0.04541016 C9.17837662 -0.05184315 10.57208393 -0.05857188 11.96578979 -0.06558228 C14.89975091 -0.07758411 17.83359419 -0.08126123 20.76757812 -0.08007812 C23.74894823 -0.07991687 26.72969551 -0.0935827 29.7109375 -0.12109375 C72.67549463 -0.51195598 72.67549463 -0.51195598 87.68310547 13.68505859 C97.69648428 24.26737939 100.50982292 34.2161509 100.52685547 48.54052734 C100.55134766 49.60916016 100.57583984 50.67779297 100.60107422 51.77880859 C100.65144182 65.59632054 95.58583309 74.49169193 86.24169922 84.29443359 C74.11841974 95.82026193 58.89186186 96.59126944 43.08935547 96.91552734 C41.54050719 96.95378252 39.99167848 96.99283841 38.44287109 97.03271484 C34.67936126 97.12788814 30.9157523 97.21221231 27.15185547 97.29052734 C27.15709229 98.58265137 27.1623291 99.87477539 27.16772461 101.20605469 C27.18578914 105.98811148 27.19729283 110.77016524 27.20678711 115.55224609 C27.21182399 117.62419135 27.21865371 119.69613304 27.22729492 121.76806641 C27.23938868 124.74170816 27.24509014 127.71530303 27.24951172 130.68896484 C27.254673 131.61921478 27.25983429 132.54946472 27.26515198 133.50790405 C27.26522751 134.36864532 27.26530304 135.2293866 27.26538086 136.11621094 C27.26760147 136.8756601 27.26982208 137.63510925 27.27210999 138.41757202 C27.15185547 140.29052734 27.15185547 140.29052734 26.15185547 142.29052734 C21.47046293 142.31518023 16.78910788 142.33336474 12.10766602 142.34545898 C10.51390932 142.35049892 8.92015728 142.35733084 7.32641602 142.3659668 C5.04035294 142.37804733 2.7543508 142.3837589 0.46826172 142.38818359 C-0.24841171 142.39334488 -0.96508514 142.39850616 -1.70347595 142.40382385 C-3.41878126 142.40401997 -5.13395719 142.35244742 -6.84814453 142.29052734 C-8.573685 140.56498687 -7.97799731 138.25961626 -7.9818573 135.90675354 C-7.98825478 134.1546759 -7.98825478 134.1546759 -7.99478149 132.36720276 C-7.99432831 131.07418747 -7.99387512 129.78117218 -7.9934082 128.44897461 C-7.99639815 127.08263049 -7.9998003 125.71628722 -8.00358582 124.34994507 C-8.01244677 120.6289098 -8.01476481 116.90789749 -8.0154016 113.18685269 C-8.01634898 110.08529889 -8.02002529 106.98375049 -8.0235737 103.88219875 C-8.03172623 96.56737778 -8.03415721 89.25256913 -8.03344727 81.93774414 C-8.03284626 74.38113398 -8.04340072 66.82459515 -8.05919093 59.26800305 C-8.0722474 52.78987019 -8.07763196 46.31176069 -8.07699186 39.83361477 C-8.07673631 35.96026953 -8.07961858 32.08698765 -8.09016991 28.21365547 C-8.09981915 24.57181362 -8.09995207 20.93009609 -8.09265327 17.28824997 C-8.09110141 15.30862073 -8.09947629 13.32899159 -8.10809326 11.34938049 C-8.10389877 10.17850891 -8.09970428 9.00763733 -8.09538269 7.80128479 C-8.09592746 6.7793934 -8.09647223 5.757502 -8.0970335 4.7046442 C-7.56903071 -0.41675769 -4.3421028 0.03053019 0 0 Z M26.15185547 29.29052734 C26.15185547 41.83052734 26.15185547 54.37052734 26.15185547 67.29052734 C36.84976368 69.07351205 48.70179071 69.75445101 58.52685547 64.47802734 C63.07265956 60.68985727 65.91238288 57.14985232 67.15185547 51.29052734 C67.52722014 43.9361603 64.82730041 38.82754076 60.15185547 33.29052734 C52.42408096 26.2251335 34.24891685 29.29052734 26.15185547 29.29052734 Z " fill="#ffffff" transform="translate(217.84814453125,21.70947265625)"/>
<path d="M0 0 C0.78874512 0.04664795 1.57749023 0.0932959 2.39013672 0.14135742 C21.90994223 1.50436117 35.46639744 10.20367799 48.3125 24.75 C50.5 28.0625 50.5 28.0625 51.3125 30.75 C48.27157378 38.82695746 39.02003703 43.37137671 32.046875 47.5625 C29.3125 48.75 29.3125 48.75 27.1640625 48.73828125 C24.51981499 47.3269002 23.51438481 45.46569794 21.9375 42.9375 C18.14784968 37.28527686 14.271406 33.73313289 7.484375 32.06640625 C-3.67537361 30.44061554 -13.51164211 31.74887219 -22.9375 38 C-32.29931648 45.05061804 -39.00021101 54.88273412 -40.6875 66.75 C-41.79550932 79.95529142 -38.62132643 91.3260726 -31.859375 102.640625 C-30.6875 104.75 -30.6875 104.75 -30.6875 106.75 C-29.388125 107.16572266 -29.388125 107.16572266 -28.0625 107.58984375 C-23.83104422 109.04440668 -19.7827393 110.83190671 -15.6875 112.62890625 C-6.61669509 116.01864715 2.48802513 115.50779074 11.3125 111.75 C14.93139202 109.53954163 18.09031619 106.91769154 21.15234375 103.9921875 C21.74144531 103.43789062 22.33054687 102.88359375 22.9375 102.3125 C23.44539063 101.79816406 23.95328125 101.28382812 24.4765625 100.75390625 C27.39852536 99.15615209 29.14745197 99.86123651 32.3125 100.75 C35.1203743 102.00306843 37.77139198 103.47156331 40.4375 105 C41.14003906 105.38285156 41.84257813 105.76570313 42.56640625 106.16015625 C46.64711602 108.46664438 49.91619067 110.57912647 52.3125 114.75 C52.15418636 120.55483347 48.22993134 123.88101746 44.3125 127.75 C30.56273435 140.4993957 13.14854841 146.91799151 -5.6875 146.75 C-26.31939436 145.89539576 -45.71324716 139.54704275 -60.6875 124.75 C-72.04829305 110.99003326 -77.12033092 96.19499788 -76.875 78.4375 C-76.8649292 77.4256665 -76.8548584 76.41383301 -76.84448242 75.37133789 C-76.80689667 72.49706518 -76.74997441 69.62382267 -76.6875 66.75 C-76.66945313 65.46609375 -76.65140625 64.1821875 -76.6328125 62.859375 C-75.90491993 45.47558772 -66.99255607 30.60150433 -54.6875 18.75 C-39.76711456 5.99034111 -19.64834541 -1.16729091 0 0 Z " fill="#ffffff" transform="translate(83.6875,20.25)"/>
<path d="M0 0 C2.01774196 1.76379274 2.96408476 2.90370514 3.70703125 5.4921875 C0.90324721 13.57599477 -5.15931084 20.75589019 -10.29296875 27.4921875 C-13.50131714 26.01649408 -16.15793792 24.16817677 -18.98046875 22.0546875 C-28.81028603 15.22644974 -39.45311168 13.65880447 -51.29296875 15.4921875 C-54.66091803 16.8746645 -56.49375112 18.33139978 -58.29296875 21.4921875 C-59.78379666 24.92509117 -59.78379666 24.92509117 -59.29296875 28.4921875 C-55.92795549 34.96336684 -50.03634566 36.74236054 -43.33984375 38.89208984 C-40.30101371 39.78300638 -37.22884502 40.51720992 -34.15136719 41.26147461 C-21.75906969 44.28401591 -13.49654867 49.0799935 -4.29296875 57.9296875 C-3.74012207 58.45498047 -3.18727539 58.98027344 -2.61767578 59.52148438 C5.19868129 67.42267013 5.71162451 77.25067842 5.95703125 87.8671875 C5.80410107 100.73881085 1.71781809 108.80347081 -6.94921875 118.30859375 C-19.34109123 129.94116032 -36.39345823 132.23081305 -52.66796875 131.78125 C-70.14563831 130.92464264 -88.88261557 123.44990346 -103.29296875 113.4921875 C-103.62296875 112.5021875 -103.95296875 111.5121875 -104.29296875 110.4921875 C-102.74724556 108.16147939 -101.1911438 106.07684233 -99.41796875 103.9296875 C-98.66555908 103.00337524 -98.66555908 103.00337524 -97.89794922 102.05834961 C-96.86865931 100.79951404 -95.8336337 99.54534679 -94.79296875 98.29589844 C-93.42212054 96.64748917 -92.07543693 94.9820056 -90.73046875 93.3125 C-89.58578125 91.94738281 -89.58578125 91.94738281 -88.41796875 90.5546875 C-87.40089844 89.33458984 -87.40089844 89.33458984 -86.36328125 88.08984375 C-84.29296875 86.4921875 -84.29296875 86.4921875 -81.8203125 86.53515625 C-79.02168128 87.59491614 -77.08998648 88.90567623 -74.73046875 90.7421875 C-65.64880167 97.35941419 -56.13295963 100.66010032 -44.98046875 100.8046875 C-43.87928711 100.84819336 -43.87928711 100.84819336 -42.75585938 100.89257812 C-37.12522285 100.95752779 -33.91893384 99.72450741 -29.29296875 96.4921875 C-26.66354838 92.90661427 -26.17262615 91.34962849 -26.79296875 86.9296875 C-28.91335593 82.07046687 -31.62070699 79.34003486 -36.359375 76.9375 C-37.51308594 76.50179687 -38.66679688 76.06609375 -39.85546875 75.6171875 C-40.49460205 75.37162109 -41.13373535 75.12605469 -41.79223633 74.87304688 C-46.45343804 73.1057876 -51.16725544 71.4952872 -55.88354492 69.88232422 C-70.24653899 64.95918082 -83.95867565 60.18838331 -92.28515625 46.6796875 C-95.18856877 40.37770683 -95.6576934 34.429746 -95.66796875 27.6171875 C-95.69246094 26.77027344 -95.71695313 25.92335937 -95.7421875 25.05078125 C-95.78590273 15.53543245 -91.84433218 7.351521 -85.29296875 0.4921875 C-59.546042 -20.67558785 -26.70540247 -17.53935524 0 0 Z " fill="#ffffff" transform="translate(826.29296875,34.5078125)"/>
<path d="M0 0 C10.89 0 21.78 0 33 0 C33 46.86 33 93.72 33 142 C22.11 142 11.22 142 0 142 C-1.73175134 140.26824866 -1.12612032 137.93048574 -1.12698364 135.5715332 C-1.13121338 133.8046666 -1.13121338 133.8046666 -1.13552856 132.00210571 C-1.13350433 130.69816864 -1.1314801 129.39423157 -1.12939453 128.05078125 C-1.13074855 126.67296299 -1.13252849 125.29514509 -1.13470459 123.91732788 C-1.13927884 120.16536453 -1.1374894 116.41342855 -1.1343255 112.66146469 C-1.13180186 108.74346592 -1.13413945 104.82546956 -1.13571167 100.9074707 C-1.13753335 94.32665585 -1.13512709 87.74585221 -1.13037109 81.16503906 C-1.12492847 73.54594557 -1.12669113 65.92687883 -1.1321975 58.30778599 C-1.13672867 51.77786562 -1.13737916 45.24795332 -1.13475883 38.71803188 C-1.13319607 34.81288146 -1.13300225 30.90774362 -1.13629532 27.00259399 C-1.13917409 23.33205532 -1.13719825 19.6615513 -1.13140106 15.99101639 C-1.12943786 13.99330951 -1.13242733 11.99559972 -1.13552856 9.99789429 C-1.13270874 8.81998322 -1.12988892 7.64207214 -1.12698364 6.4284668 C-1.12660662 5.39827927 -1.12622959 4.36809174 -1.12584114 3.3066864 C-1 1 -1 1 0 0 Z " fill="#ffffff" transform="translate(152,22)"/>
<path d="M0 0 C2.64 0.33 5.28 0.66 8 1 C8 1.66 8 2.32 8 3 C8.86625 3.185625 9.7325 3.37125 10.625 3.5625 C15.98260857 5.84444439 18.89156195 9.68235681 21.375 14.875 C22.1907641 18.95382049 22.16574726 22.85631849 22 27 C22.763125 27.0825 23.52625 27.165 24.3125 27.25 C27.59282427 28.16543933 28.3341214 29.08471245 30 32 C31.49662072 36.82265911 31.1842095 41.74844092 31.1875 46.75 C31.19974609 47.71421875 31.21199219 48.6784375 31.22460938 49.671875 C31.25205832 63.14015727 31.25205832 63.14015727 27.37890625 68.05859375 C26.77949219 68.51363281 26.18007812 68.96867187 25.5625 69.4375 C24.96566406 69.91058594 24.36882812 70.38367188 23.75390625 70.87109375 C18.5124035 74.24480042 11.8630333 73.22387921 5.85864258 73.24023438 C3.70549579 73.24991906 1.55331268 73.28094452 -0.59960938 73.3125 C-1.97916103 73.31903289 -3.35871948 73.32428224 -4.73828125 73.328125 C-6.61060425 73.34214355 -6.61060425 73.34214355 -8.52075195 73.35644531 C-12.96410289 72.90122867 -16.32955075 71.52364017 -19.64453125 68.5 C-24.78975224 61.89209077 -24.21489258 56.27537147 -24.25 48.1875 C-24.270625 47.01123047 -24.29125 45.83496094 -24.3125 44.62304688 C-24.36222778 33.62699104 -24.36222778 33.62699104 -21 29 C-18 27 -18 27 -15 27 C-15.03480469 26.27554688 -15.06960937 25.55109375 -15.10546875 24.8046875 C-15.38950409 14.66056813 -15.38950409 14.66056813 -12 10 C-5.52024922 3.50674974 -5.52024922 3.50674974 -1 2 C-0.67 1.34 -0.34 0.68 0 0 Z M-3 12 C-7.03999705 16.45792778 -6.22725664 21.31858409 -6 27 C0.27 26.67 6.54 26.34 13 26 C13.40226522 18.45252501 13.40226522 18.45252501 10 13 C5.27949648 9.57763494 2.19271635 9.27382391 -3 12 Z M-1 41 C-1.33333333 43.5 -1.33333333 43.5 -1 46 C-0.34 46.66 0.32 47.32 1 48 C0.9765625 50.6015625 0.9765625 50.6015625 0.625 53.625 C0.51414062 54.62789062 0.40328125 55.63078125 0.2890625 56.6640625 C0.19367188 57.43492188 0.09828125 58.20578125 0 59 C2.31 59 4.62 59 7 59 C6.90460938 58.22914062 6.80921875 57.45828125 6.7109375 56.6640625 C6.60007812 55.66117188 6.48921875 54.65828125 6.375 53.625 C6.25898437 52.62726563 6.14296875 51.62953125 6.0234375 50.6015625 C6.01570313 49.74304688 6.00796875 48.88453125 6 48 C6.66 47.34 7.32 46.68 8 46 C8.33333333 43.5 8.33333333 43.5 8 41 C6.17296773 38.7508092 6.17296773 38.7508092 3.5 38.75 C0.82703227 38.7508092 0.82703227 38.7508092 -1 41 Z " fill="#ffffff" transform="translate(78,52)"/>
<path d="M0 0 C10.56 0 21.12 0 32 0 C32 18.15 32 36.3 32 55 C32.99 54.67 33.98 54.34 35 54 C36.48844716 53.91349416 37.98048257 53.88229827 39.47143555 53.88647461 C40.82249641 53.88658791 40.82249641 53.88658791 42.20085144 53.88670349 C43.16968765 53.89186478 44.13852386 53.89702606 45.13671875 53.90234375 C46.62858452 53.90446617 46.62858452 53.90446617 48.15058899 53.90663147 C51.32958982 53.91223239 54.50852043 53.92478504 57.6875 53.9375 C59.84179586 53.94251488 61.99609282 53.94707781 64.15039062 53.95117188 C69.43361774 53.96220212 74.71680385 53.97894114 80 54 C80 54.66 80 55.32 80 56 C63.83 56 47.66 56 31 56 C30.20383831 52.81535325 29.87387428 50.68046158 29.87060547 47.49438477 C29.86745331 46.60989151 29.86430115 45.72539825 29.86105347 44.81410217 C29.8630777 43.86611252 29.86510193 42.91812286 29.8671875 41.94140625 C29.86623077 40.96010239 29.86527405 39.97879852 29.86428833 38.96775818 C29.86360838 36.89411352 29.8654498 34.82046673 29.86962891 32.74682617 C29.874974 29.57791339 29.8696806 26.40914272 29.86328125 23.24023438 C29.86394218 21.22395802 29.86522364 19.20768176 29.8671875 17.19140625 C29.86516327 16.24544083 29.86313904 15.2994754 29.86105347 14.32484436 C29.86578171 12.99337624 29.86578171 12.99337624 29.87060547 11.63500977 C29.87140106 10.85875748 29.87219666 10.08250519 29.87301636 9.2827301 C30 7 30 7 31 2 C21.1 2 11.2 2 1 2 C1 47.54 1 93.08 1 140 C10.57 140 20.14 140 30 140 C29.98259766 133.73708984 29.98259766 133.73708984 29.96484375 127.34765625 C29.95841679 124.02702616 29.95299257 120.70639783 29.94824982 117.38576508 C29.94296017 113.87573507 29.9358868 110.36572905 29.92456055 106.85571289 C29.91165794 102.83219159 29.90677088 98.80869586 29.90234375 94.78515625 C29.89460182 92.88987938 29.89460182 92.88987938 29.88670349 90.95631409 C29.88662796 89.795186 29.88655243 88.63405792 29.88647461 87.43774414 C29.884254 86.40960098 29.88203339 85.38145782 29.87974548 84.32215881 C30 82 30 82 31 81 C32.71318946 80.90118407 34.43044803 80.87201031 36.14648438 80.87060547 C37.24432251 80.86745331 38.34216064 80.86430115 39.4732666 80.86105347 C41.26540588 80.86408981 41.26540588 80.86408981 43.09375 80.8671875 C44.31074585 80.86623077 45.5277417 80.86527405 46.78161621 80.86428833 C49.36075899 80.86360628 51.93990347 80.86546228 54.51904297 80.86962891 C58.48278636 80.87497678 62.44641642 80.86968471 66.41015625 80.86328125 C68.90885442 80.86394203 71.40755252 80.86522318 73.90625 80.8671875 C75.10100952 80.86516327 76.29576904 80.86313904 77.5267334 80.86105347 C78.62457153 80.86420563 79.72240967 80.86735779 80.85351562 80.87060547 C82.31126404 80.87179886 82.31126404 80.87179886 83.79846191 80.87301636 C86 81 86 81 87 82 C87.10422936 83.7996366 87.13854102 85.603366 87.14526367 87.40600586 C87.15164352 88.56067856 87.15802338 89.71535126 87.16459656 90.90501404 C87.16570938 92.16225784 87.1668222 93.41950165 87.16796875 94.71484375 C87.17296135 96.63666222 87.17296135 96.63666222 87.17805481 98.5973053 C87.18405192 101.3134953 87.18589413 104.02965345 87.18530273 106.74584961 C87.1852011 110.23090592 87.19885216 113.71575855 87.21607494 117.20076656 C87.22985066 120.51796233 87.22928324 123.8351197 87.23046875 127.15234375 C87.23765427 128.40756332 87.24483978 129.6627829 87.25224304 130.95603943 C87.24916641 132.11386429 87.24608978 133.27168915 87.24291992 134.46459961 C87.24434494 135.48750595 87.24576996 136.51041229 87.24723816 137.5643158 C87 140 87 140 85 142 C84.0597491 135.656341 83.8538738 129.48579159 83.8671875 123.078125 C83.86623077 122.05571716 83.86527405 121.03330933 83.86428833 119.97991943 C83.86361119 117.83182717 83.86543279 115.6837328 83.86962891 113.53564453 C83.87500593 110.24637285 83.86965675 106.95723635 83.86328125 103.66796875 C83.86394168 101.57552053 83.86522212 99.4830724 83.8671875 97.390625 C83.86516327 96.40829895 83.86313904 95.4259729 83.86105347 94.41387939 C83.86578171 93.04160187 83.86578171 93.04160187 83.87060547 91.64160156 C83.87140106 90.8396637 83.87219666 90.03772583 83.87301636 89.21148682 C84 87 84 87 85 83 C67.51 83 50.02 83 32 83 C32 102.47 32 121.94 32 142 C21.11 142 10.22 142 -1 142 C-1.95843527 138.16625891 -2.20133302 135.01022887 -2.31640625 131.07421875 C-2.33727798 130.36388489 -2.35814972 129.65355103 -2.37965393 128.92169189 C-2.44710048 126.51041756 -2.50573017 124.09904849 -2.5625 121.6875 C-2.58334656 120.84164337 -2.60419312 119.99578674 -2.62567139 119.1242981 C-3.03265261 102.07563083 -3.10944713 85.02518731 -3.12293625 67.97244644 C-3.12495992 65.9770211 -3.12888229 63.98159797 -3.13284302 61.98617554 C-3.15478813 47.95155978 -3.05757479 33.92115647 -2.67306137 19.89151192 C-2.6361496 18.52064162 -2.60217146 17.14968882 -2.57129288 15.77866936 C-2.5270526 13.88027342 -2.46867265 11.98222293 -2.40966797 10.08422852 C-2.37904266 9.00335464 -2.34841736 7.92248077 -2.31686401 6.80885315 C-2 4 -2 4 0 0 Z " fill="#2E2E2E" transform="translate(338,22)"/>
<path d="M0 0 C10.89 0 21.78 0 33 0 C33 46.86 33 93.72 33 142 C22.11 142 11.22 142 0 142 C-1.73175134 140.26824866 -1.12612032 137.93048574 -1.12698364 135.5715332 C-1.13121338 133.8046666 -1.13121338 133.8046666 -1.13552856 132.00210571 C-1.13350433 130.69816864 -1.1314801 129.39423157 -1.12939453 128.05078125 C-1.13074855 126.67296299 -1.13252849 125.29514509 -1.13470459 123.91732788 C-1.13927884 120.16536453 -1.1374894 116.41342855 -1.1343255 112.66146469 C-1.13180186 108.74346592 -1.13413945 104.82546956 -1.13571167 100.9074707 C-1.13753335 94.32665585 -1.13512709 87.74585221 -1.13037109 81.16503906 C-1.12492847 73.54594557 -1.12669113 65.92687883 -1.1321975 58.30778599 C-1.13672867 51.77786562 -1.13737916 45.24795332 -1.13475883 38.71803188 C-1.13319607 34.81288146 -1.13300225 30.90774362 -1.13629532 27.00259399 C-1.13917409 23.33205532 -1.13719825 19.6615513 -1.13140106 15.99101639 C-1.12943786 13.99330951 -1.13242733 11.99559972 -1.13552856 9.99789429 C-1.13270874 8.81998322 -1.12988892 7.64207214 -1.12698364 6.4284668 C-1.12660662 5.39827927 -1.12622959 4.36809174 -1.12584114 3.3066864 C-1 1 -1 1 0 0 Z M1 2 C1 47.54 1 93.08 1 140 C10.9 140 20.8 140 31 140 C31 94.46 31 48.92 31 2 C21.1 2 11.2 2 1 2 Z " fill="#ffffff" transform="translate(152,22)"/>
<path d="M0 0 C1.67162201 0.00213753 1.67162201 0.00213753 3.37701416 0.00431824 C4.63882507 0.00124161 5.90063599 -0.00183502 7.20068359 -0.00500488 C8.58530863 0.00189606 9.96993188 0.00916327 11.35455322 0.01676941 C12.77221637 0.0179617 14.18988032 0.01841427 15.60754395 0.01815796 C18.58348517 0.01972391 21.55930629 0.02801826 24.53521729 0.04142761 C28.33928566 0.05835576 32.14322122 0.06224369 35.94732285 0.06148243 C38.87794245 0.06175529 41.80853335 0.0672561 44.73914337 0.07448387 C46.14088982 0.07765494 47.54263951 0.07963428 48.94438934 0.08037758 C50.91152624 0.08256128 52.8786507 0.09212695 54.84576416 0.10197449 C55.96336121 0.10578629 57.08095825 0.10959808 58.23242188 0.11352539 C61.35428876 0.24656104 64.30276462 0.66632472 67.37017822 1.24723816 C67.37017822 1.90723816 67.37017822 2.56723816 67.37017822 3.24723816 C44.60017822 2.91723816 21.83017822 2.58723816 -1.62982178 2.24723816 C-1.62982178 47.78723816 -1.62982178 93.32723816 -1.62982178 140.24723816 C8.27017822 140.24723816 18.17017822 140.24723816 28.37017822 140.24723816 C28.37017822 129.68723816 28.37017822 119.12723816 28.37017822 108.24723816 C30.37017822 110.24723816 30.37017822 110.24723816 30.61309814 113.19645691 C30.60898926 114.43008972 30.60488037 115.66372253 30.60064697 116.93473816 C30.60018875 117.59304626 30.59973053 118.25135437 30.59925842 118.92961121 C30.59623703 120.321638 30.58835403 121.71366144 30.57598877 123.1056366 C30.55774955 125.23889619 30.55547898 127.37172129 30.5557251 129.50505066 C30.51772639 139.95214183 30.51772639 139.95214183 29.37017822 142.24723816 C24.68878568 142.27189104 20.00743063 142.29007555 15.32598877 142.3021698 C13.73223208 142.30720973 12.13848003 142.31404166 10.54473877 142.32267761 C8.2586757 142.33475814 5.97267355 142.34046971 3.68658447 142.34489441 C2.96991104 142.35005569 2.25323761 142.35521698 1.5148468 142.36053467 C-0.2004585 142.36073079 -1.91563444 142.30915823 -3.62982178 142.24723816 C-5.35536225 140.52169769 -4.75967456 138.21632708 -4.76353455 135.86346436 C-4.76993202 134.11138672 -4.76993202 134.11138672 -4.77645874 132.32391357 C-4.77600555 131.03089828 -4.77555237 129.737883 -4.77508545 128.40568542 C-4.7780754 127.0393413 -4.78147754 125.67299803 -4.78526306 124.30665588 C-4.79412402 120.58562061 -4.79644205 116.86460831 -4.79707885 113.14356351 C-4.79802623 110.0420097 -4.80170254 106.9404613 -4.80525094 103.83890957 C-4.81340348 96.5240886 -4.81583445 89.20927994 -4.81512451 81.89445496 C-4.81452351 74.33784479 -4.82507797 66.78130597 -4.84086818 59.22471386 C-4.85392465 52.746581 -4.85930921 46.26847151 -4.8586691 39.79032558 C-4.85841355 35.91698035 -4.86129583 32.04369847 -4.87184715 28.17036629 C-4.8814964 24.52852443 -4.88162931 20.88680691 -4.87433052 17.24496078 C-4.87277866 15.26533154 -4.88115353 13.2857024 -4.88977051 11.30609131 C-4.88557602 10.13521973 -4.88138153 8.96434814 -4.87705994 7.75799561 C-4.8776047 6.73610421 -4.87814947 5.71421282 -4.87871075 4.66135502 C-4.51392955 1.12313302 -3.50360674 0.32938555 0 0 Z " fill="#404040" transform="translate(214.62982177734375,21.752761840820313)"/>
<path d="M0 0 C1.30341591 -0.00021904 1.30341591 -0.00021904 2.63316345 -0.0004425 C5.49000593 0.00025118 8.34678227 0.00801804 11.20361328 0.01586914 C13.1904395 0.01773525 15.17726618 0.01915824 17.16409302 0.02015686 C22.38205241 0.02396682 27.59998378 0.03378409 32.81793213 0.04486084 C38.14700949 0.0551077 43.4760914 0.05966149 48.80517578 0.06469727 C59.25310473 0.07540775 69.70101292 0.09246586 80.14892578 0.11352539 C80.64392578 1.10352539 80.64392578 1.10352539 81.14892578 2.11352539 C50.12892578 2.11352539 19.10892578 2.11352539 -12.85107422 2.11352539 C-12.83947266 11.8240332 -12.82787109 21.53454102 -12.81591797 31.53930664 C-12.8108106 37.67797878 -12.80595549 43.81664939 -12.80224609 49.95532227 C-12.79630653 59.7065483 -12.78931439 69.45776571 -12.77563477 79.20898438 C-12.76567785 86.30992663 -12.75921838 93.41086191 -12.75698572 100.51181096 C-12.75568034 104.27284464 -12.75260528 108.03385835 -12.74534416 111.79488564 C-12.73731032 115.99005653 -12.73708373 120.18519254 -12.73754883 124.38037109 C-12.73395355 125.63193497 -12.73035828 126.88349884 -12.72665405 128.17298889 C-12.72802872 129.31302368 -12.72940338 130.45305847 -12.7308197 131.62763977 C-12.72989791 132.62041081 -12.72897612 133.61318186 -12.72802639 134.63603687 C-12.85107422 137.11352539 -12.85107422 137.11352539 -13.85107422 140.11352539 C17.82892578 140.11352539 49.50892578 140.11352539 82.14892578 140.11352539 C82.14892578 140.44352539 82.14892578 140.77352539 82.14892578 141.11352539 C34.13392578 141.60852539 34.13392578 141.60852539 -14.85107422 142.11352539 C-15.54556612 137.94657397 -15.97641577 134.61333123 -15.97805786 130.49034119 C-15.98087769 129.39547897 -15.98369751 128.30061676 -15.98660278 127.1725769 C-15.98457855 125.98640778 -15.98255432 124.80023865 -15.98046875 123.578125 C-15.98222107 122.31731613 -15.98397339 121.05650726 -15.98577881 119.75749207 C-15.99032429 116.31133072 -15.98857559 112.86519943 -15.98539972 109.41903758 C-15.98286176 105.80723539 -15.98521761 102.19543572 -15.98678589 98.58363342 C-15.98860315 92.52026916 -15.98621264 86.4569171 -15.98144531 80.39355469 C-15.97600109 73.3884839 -15.97776829 66.38344222 -15.98327172 59.37837213 C-15.98781253 53.3569889 -15.98844872 47.33561442 -15.98583305 41.31423002 C-15.98427593 37.72089986 -15.9840611 34.12758336 -15.98736954 30.53425407 C-15.99079968 26.52932898 -15.98604269 22.52445393 -15.98046875 18.51953125 C-15.98249298 17.33133789 -15.98451721 16.14314453 -15.98660278 14.91894531 C-15.98378296 13.82690292 -15.98096313 12.73486053 -15.97805786 11.60972595 C-15.97768084 10.66346313 -15.97730381 9.7172003 -15.97691536 8.74226284 C-15.85074422 6.10663192 -15.43731079 3.68272988 -14.85107422 1.11352539 C-9.84402841 0.1048658 -5.08014893 -0.0225309 0 0 Z " fill="#1D1D1D" transform="translate(495.85107421875,21.886474609375)"/>
<path d="M0 0 C0.66 0 1.32 0 2 0 C2 45.54 2 91.08 2 138 C11.57 138 21.14 138 31 138 C30.98839844 134.69097656 30.97679687 131.38195312 30.96484375 127.97265625 C30.95705419 124.78230892 30.95097686 121.59196263 30.94506836 118.40161133 C30.94002683 116.17732268 30.93319377 113.95303737 30.92456055 111.72875977 C30.91248702 108.53921691 30.90677004 105.34971771 30.90234375 102.16015625 C30.89718246 101.15912369 30.89202118 100.15809113 30.88670349 99.12672424 C30.88659019 97.74540565 30.88659019 97.74540565 30.88647461 96.33618164 C30.884254 95.52121719 30.88203339 94.70625275 30.87974548 93.86659241 C31 92 31 92 32 91 C34.62257373 90.79256479 37.18639318 90.67554624 39.8125 90.625 C40.90014648 90.56892578 40.90014648 90.56892578 42.00976562 90.51171875 C44.14453125 90.4765625 44.14453125 90.4765625 48 91 C50.40234375 93.35546875 50.40234375 93.35546875 52 96 C52.86625 97.3303125 52.86625 97.3303125 53.75 98.6875 C55 101 55 101 55 103 C54.34 103 53.68 103 53 103 C52.81308594 102.36191406 52.62617187 101.72382812 52.43359375 101.06640625 C51.25194941 98.09607674 50.25708349 96.29418623 48 94 C45.26861889 93.49834033 43.01870587 93.25253129 40.28515625 93.21484375 C39.5852356 93.18773315 38.88531494 93.16062256 38.16418457 93.13269043 C36.44340543 93.06884916 34.72166959 93.03178672 33 93 C33.00222061 93.57407089 33.00444122 94.14814178 33.00672913 94.73960876 C33.02878257 100.6925291 33.04390684 106.6454379 33.05493164 112.59838867 C33.05997317 114.82267732 33.06680623 117.04696263 33.07543945 119.27124023 C33.08751298 122.46078309 33.09322996 125.65028229 33.09765625 128.83984375 C33.10281754 129.84087631 33.10797882 130.84190887 33.11329651 131.87327576 C33.11337204 132.79415482 33.11344757 133.71503387 33.11352539 134.66381836 C33.115746 135.47878281 33.11796661 136.29374725 33.12025452 137.13340759 C33 139 33 139 32 140 C29.72052208 140.1002093 27.43792865 140.13081303 25.15625 140.1328125 C24.12981384 140.13424759 24.12981384 140.13424759 23.0826416 140.13571167 C21.63338123 140.1363933 20.18411782 140.13454023 18.73486328 140.13037109 C16.50937072 140.12502252 14.28407999 140.1303166 12.05859375 140.13671875 C10.65364539 140.13605797 9.24869715 140.1347768 7.84375 140.1328125 C6.55662109 140.13168457 5.26949219 140.13055664 3.94335938 140.12939453 C1 140 1 140 0 139 C-0.09639184 137.20305962 -0.12187425 135.40229107 -0.12025452 133.60276794 C-0.12162918 132.43182587 -0.12300385 131.26088379 -0.12442017 130.05445862 C-0.12082489 128.75830124 -0.11722961 127.46214386 -0.11352539 126.12670898 C-0.11324352 124.75712079 -0.11340125 123.38753244 -0.1139679 122.01794434 C-0.11425588 118.28877052 -0.10835909 114.55962859 -0.10139394 110.83046222 C-0.09516047 106.93735587 -0.09455661 103.04424887 -0.09336853 99.15113831 C-0.09025519 91.77401854 -0.08204178 84.39691351 -0.07201904 77.01980025 C-0.06085797 68.62332457 -0.05534747 60.22684821 -0.05032361 51.83036697 C-0.03985916 34.55356944 -0.02225968 17.27678628 0 0 Z " fill="#1E1E1E" transform="translate(602,24)"/>
<path d="M0 0 C1.39120471 0.00015906 2.78241534 0.00585033 4.17358398 0.01586914 C4.90463852 0.01728409 5.63569305 0.01869904 6.38890076 0.02015686 C8.73253406 0.02577131 11.07607313 0.03832617 13.41967773 0.05102539 C15.00496282 0.05603853 16.59024939 0.06060176 18.17553711 0.06469727 C22.06945383 0.07574542 25.96329979 0.09301967 29.85717773 0.11352539 C29.85717773 0.77352539 29.85717773 1.43352539 29.85717773 2.11352539 C19.29717773 2.11352539 8.73717773 2.11352539 -2.14282227 2.11352539 C-2.13758545 4.89371094 -2.13234863 7.67389648 -2.12695312 10.53833008 C-2.11013217 19.88592507 -2.09923959 29.23352088 -2.09101009 38.58112717 C-2.08586514 44.22995577 -2.07892715 49.87876845 -2.06738281 55.52758789 C-2.01385922 82.40808245 -2.16367379 109.24888987 -3.14282227 136.11352539 C-3.47282227 136.11352539 -3.80282227 136.11352539 -4.14282227 136.11352539 C-4.16615065 118.52898421 -4.18380114 100.94444785 -4.19463444 83.35989475 C-4.19979753 75.19565375 -4.20684046 67.03142234 -4.21826172 58.8671875 C-4.22820817 51.75381255 -4.2346756 44.64044455 -4.23691076 37.52706283 C-4.23821793 33.75826815 -4.2413042 29.98949336 -4.24855232 26.22070503 C-4.25656543 22.02033723 -4.25681343 17.82000432 -4.25634766 13.61962891 C-4.25994293 12.36087448 -4.26353821 11.10212006 -4.26724243 9.80522156 C-4.26586777 8.6679361 -4.2644931 7.53065063 -4.26307678 6.35890198 C-4.26399858 5.36428735 -4.26492037 4.36967272 -4.26587009 3.34491825 C-4.07154394 -0.179061 -3.61679473 0.13064628 0 0 Z " fill="#494949" transform="translate(155.142822265625,21.886474609375)"/>
<path d="M0 0 C1.30341591 -0.00021904 1.30341591 -0.00021904 2.63316345 -0.0004425 C5.49000593 0.00025118 8.34678227 0.00801804 11.20361328 0.01586914 C13.1904395 0.01773525 15.17726618 0.01915824 17.16409302 0.02015686 C22.38205241 0.02396682 27.59998378 0.03378409 32.81793213 0.04486084 C38.14700949 0.0551077 43.4760914 0.05966149 48.80517578 0.06469727 C59.25310473 0.07540775 69.70101292 0.09246586 80.14892578 0.11352539 C80.64392578 1.10352539 80.64392578 1.10352539 81.14892578 2.11352539 C50.12892578 2.11352539 19.10892578 2.11352539 -12.85107422 2.11352539 C-13.18107422 8.05352539 -13.51107422 13.99352539 -13.85107422 20.11352539 C-14.51107422 20.11352539 -15.17107422 20.11352539 -15.85107422 20.11352539 C-15.87822156 17.88442668 -15.89753676 15.65523172 -15.91357422 13.42602539 C-15.93097656 11.56397461 -15.93097656 11.56397461 -15.94873047 9.66430664 C-15.86586095 6.65117085 -15.55946871 4.030772 -14.85107422 1.11352539 C-9.84402841 0.1048658 -5.08014893 -0.0225309 0 0 Z " fill="#212121" transform="translate(495.85107421875,21.886474609375)"/>
<path d="M0 0 C0.33 0 0.66 0 1 0 C2.31994126 6.92969161 2.32058604 13.96596509 2 21 C1 22 1 22 -1.54994202 22.12025452 C-3.25204079 22.1169236 -3.25204079 22.1169236 -4.98852539 22.11352539 C-6.26977798 22.11344986 -7.55103058 22.11337433 -8.87110901 22.11329651 C-10.27995848 22.10818909 -11.68880756 22.10297309 -13.09765625 22.09765625 C-14.53112234 22.09579202 -15.96458907 22.09436814 -17.39805603 22.09336853 C-21.17759957 22.08954372 -24.9571049 22.07971377 -28.7366333 22.06866455 C-32.59069298 22.05844963 -36.44475882 22.05387074 -40.29882812 22.04882812 C-47.86590287 22.03809146 -55.43294609 22.02101549 -63 22 C-62.98952637 22.67579102 -62.97905273 23.35158203 -62.96826172 24.04785156 C-62.92664024 27.11519642 -62.90065427 30.18248178 -62.875 33.25 C-62.85824219 34.31347656 -62.84148438 35.37695312 -62.82421875 36.47265625 C-62.81777344 37.49746094 -62.81132813 38.52226563 -62.8046875 39.578125 C-62.79421387 40.52075195 -62.78374023 41.46337891 -62.77294922 42.43457031 C-63.00880787 45.09951941 -63.64338341 46.71863092 -65 49 C-65.02465881 45.03069011 -65.04284023 41.06140966 -65.05493164 37.09204102 C-65.05997057 35.74079614 -65.06680177 34.38955674 -65.07543945 33.03833008 C-65.08752419 31.09979566 -65.09269828 29.161222 -65.09765625 27.22265625 C-65.10289307 26.05484619 -65.10812988 24.88703613 -65.11352539 23.68383789 C-65 21 -65 21 -64 20 C-62.0056827 19.90594858 -60.00800457 19.88256751 -58.01147461 19.88647461 C-56.73022202 19.88655014 -55.44896942 19.88662567 -54.12889099 19.88670349 C-52.72004152 19.89181091 -51.31119244 19.89702691 -49.90234375 19.90234375 C-48.46887766 19.90420798 -47.03541093 19.90563186 -45.60194397 19.90663147 C-41.82240043 19.91045628 -38.0428951 19.92028623 -34.2633667 19.93133545 C-30.40930702 19.94155037 -26.55524118 19.94612926 -22.70117188 19.95117188 C-15.13409512 19.96190855 -7.56705777 19.97950503 0 20 C0 13.4 0 6.8 0 0 Z " fill="#2C2C2C" transform="translate(576,29)"/>
<path d="M0 0 C5.6615625 -0.061875 5.6615625 -0.061875 11.4375 -0.125 C12.60853271 -0.14320801 13.77956543 -0.16141602 14.98608398 -0.18017578 C22.39325894 -0.21903885 29.41336109 -0.2256814 35.8515625 3.76953125 C40.21228259 8.29675156 43.7990265 14.41764732 44.15625 20.78515625 C43.875 23.25 43.875 23.25 43 27 C40.94514508 23.91771761 40.82423105 23.32674402 40.75 19.875 C40.24756337 14.29338584 37.72284519 10.12390111 34 6 C30.52658301 3.77993493 27.33104 3.61681825 23.265625 3.3671875 C21.51427246 3.25286377 21.51427246 3.25286377 19.72753906 3.13623047 C17.51115723 3.00692139 17.51115723 3.00692139 15.25 2.875 C10.5475 2.58625 5.845 2.2975 1 2 C1 14.54 1 27.08 1 40 C3.97 40.33 6.94 40.66 10 41 C10 41.33 10 41.66 10 42 C6.7 42 3.4 42 0 42 C0 28.14 0 14.28 0 0 Z " fill="#252525" transform="translate(243,49)"/>
<path d="M0 0 C0.33 0 0.66 0 1 0 C1 18.15 1 36.3 1 55 C11.23 55 21.46 55 32 55 C32 44.44 32 33.88 32 23 C34 25 34 25 34.24291992 27.94921875 C34.23881104 29.18285156 34.23470215 30.41648438 34.23046875 31.6875 C34.23001053 32.34580811 34.22955231 33.00411621 34.2290802 33.68237305 C34.22605881 35.07439984 34.21817581 36.46642328 34.20581055 37.85839844 C34.18757132 39.99165803 34.18530076 42.12448313 34.18554688 44.2578125 C34.14754817 54.70490367 34.14754817 54.70490367 33 57 C22.11 57 11.22 57 0 57 C-1.29424958 54.41150084 -1.08124712 52.620693 -1.02172852 49.72412109 C-0.99158409 48.07263565 -0.99158409 48.07263565 -0.96083069 46.38778687 C-0.93379562 45.19505157 -0.90676056 44.00231628 -0.87890625 42.7734375 C-0.85529526 41.55548492 -0.83168427 40.33753235 -0.80735779 39.08267212 C-0.73058376 35.18000019 -0.64661843 31.27751988 -0.5625 27.375 C-0.50929309 24.73438448 -0.45655261 22.09375952 -0.40429688 19.453125 C-0.27495004 12.9686306 -0.13969354 6.48427931 0 0 Z " fill="#434343" transform="translate(211,107)"/>
<path d="M0 0 C0.33 0 0.66 0 1 0 C1 8.46920407 -4.61730821 14.35852304 -10.14453125 20.30859375 C-22.99576993 32.55779242 -38.32244828 33.30207325 -55.0625 33.625 C-56.7077014 33.66324919 -58.35288426 33.70230477 -59.99804688 33.7421875 C-63.99854457 33.83743071 -67.99913565 33.92173259 -72 34 C-71.67 33.01 -71.34 32.02 -71 31 C-70.06841064 30.98541748 -69.13682129 30.97083496 -68.17700195 30.95581055 C-64.655954 30.89404543 -61.1355981 30.81977269 -57.61499023 30.73754883 C-56.10336937 30.70469099 -54.5916373 30.6765432 -53.07983398 30.65356445 C-37.39675553 30.408923 -22.13074 29.04872737 -10.390625 17.4140625 C-5.79915356 12.05734581 -2.351745 6.66053654 0 0 Z " fill="#2A2A2A" transform="translate(315,85)"/>
<path d="M0 0 C6.23329623 2.63215757 11.85584405 8.39154243 15.28125 14.15625 C19.47148497 24.71564211 19.93959181 39.93040055 16.171875 50.59375 C9.85088367 63.5728522 0.72687407 70.10676767 -12 76 C-12.66 75.34 -13.32 74.68 -14 74 C-12.57107422 73.31164062 -12.57107422 73.31164062 -11.11328125 72.609375 C-9.84619428 71.98991026 -8.5792761 71.37010019 -7.3125 70.75 C-6.37374023 70.29947266 -6.37374023 70.29947266 -5.41601562 69.83984375 C0.23156745 67.06040496 4.66795452 63.77235837 8.625 58.8125 C9.19476562 58.11769531 9.76453125 57.42289063 10.3515625 56.70703125 C14.5714591 49.77720105 15.46615165 42.98988592 15.3125 35 C15.31572266 34.16210938 15.31894531 33.32421875 15.32226562 32.4609375 C15.21942229 20.38152045 12.2215425 12.95929859 3.5859375 4.41796875 C2.03930964 2.91016733 2.03930964 2.91016733 0 2 C0 1.34 0 0.68 0 0 Z " fill="#333333" transform="translate(814,87)"/>
<path d="M0 0 C0.495 1.98 0.495 1.98 1 4 C-27.215 4.495 -27.215 4.495 -56 5 C-56.33 13.91 -56.66 22.82 -57 32 C-57.33 32 -57.66 32 -58 32 C-58.02465746 27.8882744 -58.04283959 23.77657722 -58.05493164 19.66479492 C-58.0599708 18.26504772 -58.06680216 16.8653058 -58.07543945 15.46557617 C-58.0875232 13.45754223 -58.09269807 11.44947043 -58.09765625 9.44140625 C-58.10289307 8.23170166 -58.10812988 7.02199707 -58.11352539 5.77563477 C-58 3 -58 3 -57 2 C-55.22008076 1.90629376 -53.43643261 1.88255729 -51.65405273 1.88647461 C-49.94239174 1.88658791 -49.94239174 1.88658791 -48.19615173 1.88670349 C-46.9545076 1.89186478 -45.71286346 1.89702606 -44.43359375 1.90234375 C-42.53795433 1.90446617 -42.53795433 1.90446617 -40.60401917 1.90663147 C-37.23875111 1.91129418 -33.8735501 1.9202852 -30.50830078 1.93133545 C-27.0765033 1.94155154 -23.64469891 1.94612951 -20.21289062 1.95117188 C-13.47524176 1.9622262 -6.73762475 1.9789829 0 2 C0 1.34 0 0.68 0 0 Z " fill="#1D1D1D" transform="translate(569,102)"/>
<path d="M0 0 C1.258125 -0.01224609 2.51625 -0.02449219 3.8125 -0.03710938 C5.01648438 -0.03904297 6.22046875 -0.04097656 7.4609375 -0.04296875 C8.57001465 -0.04707764 9.6790918 -0.05118652 10.82177734 -0.05541992 C13.625 0.1875 13.625 0.1875 16.625 2.1875 C13.24108422 3.23877928 10.29296575 3.22837598 6.765625 3.06640625 C5.76047852 3.02330322 4.75533203 2.9802002 3.71972656 2.93579102 C2.4509668 2.87447998 1.18220703 2.81316895 -0.125 2.75 C-4.1675 2.564375 -8.21 2.37875 -12.375 2.1875 C-12.375 15.0575 -12.375 27.9275 -12.375 41.1875 C-13.035 41.1875 -13.695 41.1875 -14.375 41.1875 C-14.39964705 35.50919922 -14.41783462 29.83092931 -14.42993164 24.15258789 C-14.43497256 22.21931415 -14.44180519 20.28604424 -14.45043945 18.3527832 C-14.46251565 15.58023128 -14.46823057 12.80772959 -14.47265625 10.03515625 C-14.47781754 9.16536636 -14.48297882 8.29557648 -14.48829651 7.39942932 C-14.48849185 5.32844186 -14.43708168 3.25755676 -14.375 1.1875 C-11.6809263 -1.5065737 -3.63051593 0.00184853 0 0 Z " fill="#212121" transform="translate(647.375,48.8125)"/>
<path d="M0 0 C3.64439442 4.36335659 6.59685654 8.99329445 9.55664062 13.828125 C11.99405317 17.71446737 14.62080861 20.84686087 18 24 C18.33 24.33 18.66 24.66 19 25 C21.21687994 25.15873955 23.43855298 25.25133837 25.66015625 25.31640625 C26.65685585 25.3475779 26.65685585 25.3475779 27.6736908 25.37937927 C29.80318543 25.44493658 31.93280668 25.50378785 34.0625 25.5625 C35.50326847 25.60567939 36.94402399 25.64929349 38.38476562 25.69335938 C41.9230404 25.80062393 45.46145869 25.90187371 49 26 C48.505 24.515 48.505 24.515 48 23 C49.32 23.66 50.64 24.32 52 25 C52 25.99 52 26.98 52 28 C47.41025538 28.1241194 42.82149914 28.21457876 38.23046875 28.2746582 C36.67072521 28.29971627 35.1110981 28.33377301 33.55175781 28.37719727 C31.30244157 28.43824193 29.0546844 28.46629426 26.8046875 28.48828125 C26.1138205 28.51408768 25.42295349 28.5398941 24.71115112 28.56648254 C20.82211241 28.56870709 18.98705218 27.99121038 15.74023438 25.78710938 C13.25488159 23.25924165 11.27897426 20.88181891 9.3515625 17.91796875 C8.43310547 16.52094727 8.43310547 16.52094727 7.49609375 15.09570312 C6.56990234 13.65614258 6.56990234 13.65614258 5.625 12.1875 C4.98433594 11.20845703 4.34367188 10.22941406 3.68359375 9.22070312 C2.11382807 6.81919593 0.55301165 4.41236175 -1 2 C-0.67 1.34 -0.34 0.68 0 0 Z " fill="#ffffff" transform="translate(662,136)"/>
<path d="M0 0 C1.19882812 0.00322266 2.39765625 0.00644531 3.6328125 0.00976562 C5.4890625 0.02233398 5.4890625 0.02233398 7.3828125 0.03515625 C8.64351563 0.03966797 9.90421875 0.04417969 11.203125 0.04882812 C14.30473636 0.06057665 17.40624975 0.07700458 20.5078125 0.09765625 C20.5078125 0.75765625 20.5078125 1.41765625 20.5078125 2.09765625 C10.2778125 2.09765625 0.0478125 2.09765625 -10.4921875 2.09765625 C-10.8221875 8.03765625 -11.1521875 13.97765625 -11.4921875 20.09765625 C-12.1521875 20.09765625 -12.8121875 20.09765625 -13.4921875 20.09765625 C-13.51933485 17.86855754 -13.53865004 15.63936258 -13.5546875 13.41015625 C-13.57208984 11.54810547 -13.57208984 11.54810547 -13.58984375 9.6484375 C-13.50697423 6.63530171 -13.20058199 4.01490286 -12.4921875 1.09765625 C-8.26936232 0.293706 -4.29604986 -0.02045738 0 0 Z " fill="#4B4B4B" transform="translate(493.4921875,21.90234375)"/>
<path d="M0 0 C1.8125 0.0625 1.8125 0.0625 4 1 C7.34300232 6.94311524 7.42586073 12.22201049 7.3125 18.9375 C7.31572266 19.88818359 7.31894531 20.83886719 7.32226562 21.81835938 C7.22000193 35.30787097 7.22000193 35.30787097 3.2734375 40.09375 C2.64695312 40.5578125 2.02046875 41.021875 1.375 41.5 C0.74335937 41.9846875 0.11171875 42.469375 -0.5390625 42.96875 C-1.02117187 43.3090625 -1.50328125 43.649375 -2 44 C-2 43.01 -2 42.02 -2 41 C-0.33333333 39.33333333 1.33333333 37.66666667 3 36 C4.79511275 30.97489858 4.18438645 25.32129409 4.1875 20.0625 C4.19974609 18.97775391 4.21199219 17.89300781 4.22460938 16.77539062 C4.22654297 15.72673828 4.22847656 14.67808594 4.23046875 13.59765625 C4.23663208 12.16691772 4.23663208 12.16691772 4.24291992 10.70727539 C3.85911955 6.42992636 2.36426828 3.54640242 0 0 Z " fill="#686868" transform="translate(102,80)"/>
<path d="M0 0 C0.33 0 0.66 0 1 0 C0.83568204 8.70885166 -3.30642584 14.89681341 -9.04296875 21.26953125 C-14.64008712 26.60157662 -20.9822456 29.86516555 -28 33 C-28.66 32.34 -29.32 31.68 -30 31 C-29.04738281 30.54109375 -28.09476563 30.0821875 -27.11328125 29.609375 C-25.84619428 28.98991026 -24.5792761 28.37010019 -23.3125 27.75 C-22.68666016 27.44964844 -22.06082031 27.14929688 -21.41601562 26.83984375 C-11.78348665 22.0992274 -5.24800648 15.0791774 -1.5625 4.9375 C-1.02471033 3.29712901 -0.49745941 1.65304835 0 0 Z " fill="#2B2B2B" transform="translate(830,130)"/>
<path d="M0 0 C11.20295203 -0.59778598 11.20295203 -0.59778598 16 3 C19.73772127 7.66316668 24.03566803 13.26080137 23.9765625 19.45703125 C23.86054688 20.23433594 23.74453125 21.01164062 23.625 21.8125 C23.45871094 22.99779297 23.45871094 22.99779297 23.2890625 24.20703125 C23.19367188 24.79871094 23.09828125 25.39039062 23 26 C20.94514508 22.91771761 20.82423105 22.32674402 20.75 18.875 C20.24756337 13.29338584 17.72284519 9.12390111 14 5 C10.85180247 2.92125386 7.97272118 2.64090866 4.25 2.375 C2.77273438 2.26285156 2.77273438 2.26285156 1.265625 2.1484375 C0.51796875 2.09945312 -0.2296875 2.05046875 -1 2 C-0.67 1.34 -0.34 0.68 0 0 Z " fill="#3C3C3C" transform="translate(263,50)"/>
<path d="M0 0 C10.56 0 21.12 0 32 0 C32 0.66 32 1.32 32 2 C21.77 2 11.54 2 1 2 C0.67 4.64 0.34 7.28 0 10 C-1.125 8.375 -1.125 8.375 -2 6 C-1.34 4.02 -0.68 2.04 0 0 Z " fill="#2C2C2C" transform="translate(338,22)"/>
<path d="M0 0 C6.51231141 -1.0282597 10.91052055 2.39974983 16 6 C22.35329455 10.86440048 26.93611518 16.11530102 31 23 C30.34 23.66 29.68 24.32 29 25 C28.57589844 24.35933594 28.15179688 23.71867187 27.71484375 23.05859375 C21.35886806 13.68527576 16.05018855 8.06893252 5.671875 3.26171875 C3 2 3 2 0 0 Z " fill="#333333" transform="translate(284,25)"/>
<path d="M0 0 C4.21751282 -0.04946113 8.43487168 -0.08574827 12.65258789 -0.10986328 C14.08718812 -0.119917 15.52176789 -0.13356194 16.95629883 -0.15087891 C19.01909438 -0.17515549 21.08161885 -0.18648919 23.14453125 -0.1953125 C24.38565674 -0.20578613 25.62678223 -0.21625977 26.90551758 -0.22705078 C30 0 30 0 33 2 C21.78 2.33 10.56 2.66 -1 3 C-0.67 2.01 -0.34 1.02 0 0 Z " fill="#272727" transform="translate(244,116)"/>
<path d="M0 0 C0.94519741 2.51297993 1.18656864 3.58470913 0.06640625 6.078125 C-6.90887148 16.1515131 -13.70716562 22.03115287 -25 27 C-25.99 26.34 -26.98 25.68 -28 25 C-27.23816406 24.731875 -26.47632813 24.46375 -25.69140625 24.1875 C-12.85015368 19.313916 -6.07228343 12.14456686 0 0 Z " fill="#272727" transform="translate(707,84)"/>
<path d="M0 0 C2.515625 1.03515625 2.515625 1.03515625 4 2 C0.72485599 3.09171467 -1.8981623 2.93527858 -5.31079102 2.78271484 C-14.02695473 2.15641795 -14.02695473 2.15641795 -21.5625 5.875 C-23.93380861 8.70305704 -23.93380861 8.70305704 -25 11 C-25.66 11 -26.32 11 -27 11 C-21.44615181 -1.12724339 -11.9394926 -1.3766966 0 0 Z " fill="#272727" transform="translate(792,47)"/>
<path d="M0 0 C2.64 0.33 5.28 0.66 8 1 C8 1.66 8 2.32 8 3 C8.86625 3.185625 9.7325 3.37125 10.625 3.5625 C14.99079289 5.42200438 17.34777648 8.12101511 20 12 C20.33 12.99 20.66 13.98 21 15 C20.01 15.495 20.01 15.495 19 16 C18.69707031 15.45730469 18.39414063 14.91460937 18.08203125 14.35546875 C14.68321543 8.45738898 14.68321543 8.45738898 9 5 C5.67262903 4.48809677 2.36019228 4.18921471 -1 4 C-0.67 2.68 -0.34 1.36 0 0 Z " fill="#444444" transform="translate(78,52)"/>
<path d="M0 0 C10.34425366 0.33331484 20.0388411 0.89446222 30 4 C30 4.66 30 5.32 30 6 C29.14277344 5.86722656 28.28554687 5.73445313 27.40234375 5.59765625 C18.2769529 4.18821031 9.19357548 2.86941257 0 2 C0 1.34 0 0.68 0 0 Z " fill="#3C3C3C" transform="translate(75,20)"/>
<path d="M0 0 C2.78754287 2.53804057 4.69655115 5.41250946 6.75 8.5625 C10.40158501 14.11426166 14.16059973 19.57684712 18 25 C17.67 25.66 17.34 26.32 17 27 C10.61504958 18.88797283 4.59995904 10.68150075 -1 2 C-0.67 1.34 -0.34 0.68 0 0 Z " fill="#1E1E1E" transform="translate(691,130)"/>
<path d="M0 0 C4.09648961 1.67583666 7.33072083 4.35054767 10.75 7.125 C10.42 7.785 10.09 8.445 9.75 9.125 C9.14671875 8.68027344 8.5434375 8.23554688 7.921875 7.77734375 C7.12265625 7.21144531 6.3234375 6.64554687 5.5 6.0625 C4.71109375 5.49402344 3.9221875 4.92554687 3.109375 4.33984375 C0.89584975 2.97929795 0.89584975 2.97929795 -1.25 3.09375 C-4.29238219 4.66247832 -5.90668393 7.00928679 -8 9.6875 C-8.79921875 10.69941406 -9.5984375 11.71132812 -10.421875 12.75390625 C-11.02515625 13.53636719 -11.6284375 14.31882813 -12.25 15.125 C-12.58 14.465 -12.91 13.805 -13.25 13.125 C-12.17027262 11.7055831 -11.08604137 10.2895917 -10 8.875 C-9.09507812 7.69164062 -9.09507812 7.69164062 -8.171875 6.484375 C-3.02687861 0.16815992 -3.02687861 0.16815992 0 0 Z " fill="#1D1D1D" transform="translate(744.25,120.875)"/>
<path d="M0 0 C5.45185773 1.3297214 9.2262547 3.93447027 13 8 C15.06894305 11.44823842 15.1823408 13.98850233 15 18 C14.34 17.67 13.68 17.34 13 17 C12.731875 15.9275 12.46375 14.855 12.1875 13.75 C10.82159269 9.43660849 9.50824964 7.80659971 6 5 C3.69727765 3.81041937 1.43751958 2.90809553 -1 2 C-0.67 1.34 -0.34 0.68 0 0 Z " fill="#202020" transform="translate(787,108)"/>
<path d="M0 0 C0.66 0 1.32 0 2 0 C2 3.96 2 7.92 2 12 C1.071875 12.433125 0.14375 12.86625 -0.8125 13.3125 C-3.47184073 14.72038627 -5.08105905 15.76123556 -7 18 C-6.6875 15.625 -6.6875 15.625 -6 13 C-3 11 -3 11 0 11 C0 7.37 0 3.74 0 0 Z " fill="#373737" transform="translate(63,68)"/>
<path d="M0 0 C3.85550018 3.63635985 6.86741138 7.41691848 9.8125 11.8125 C10.21919922 12.40998047 10.62589844 13.00746094 11.04492188 13.62304688 C12.03479703 15.07874564 13.01809735 16.53891174 14 18 C13.34 18.66 12.68 19.32 12 20 C11.38511719 19.10796875 10.77023437 18.2159375 10.13671875 17.296875 C9.32035449 16.11455434 8.5039459 14.93226429 7.6875 13.75 C7.28337891 13.16347656 6.87925781 12.57695313 6.46289062 11.97265625 C4.76656344 9.51780877 3.07518853 7.09369899 1.20703125 4.765625 C0 3 0 3 0 0 Z " fill="#2C2C2C" transform="translate(677,110)"/>
<path d="M0 0 C3.99500618 1.3697164 6.80009492 3.25722422 10 6 C11.65 4.35 13.3 2.7 15 1 C14.40072174 4.35595828 13.15377564 6.37801226 11 9 C7.03935893 7.25731793 3.25563451 4.85325271 0 2 C0 1.34 0 0.68 0 0 Z " fill="#424242" transform="translate(805,53)"/>
<path d="M0 0 C0.391875 0.53625 0.78375 1.0725 1.1875 1.625 C5.6464011 7.94695356 5.6464011 7.94695356 12 12 C12 12.66 12 13.32 12 14 C7.29311176 12.38620975 3.46796125 10.23689334 0.6875 6 C0 4 0 4 0 0 Z " fill="#ffffff" transform="translate(764,59)"/>
<path d="M0 0 C4.55700425 0.52484692 7.192874 2.31507303 10.8125 5.0625 C11.78832031 5.79597656 12.76414062 6.52945313 13.76953125 7.28515625 C14.87361328 8.13400391 14.87361328 8.13400391 16 9 C15.34 9.66 14.68 10.32 14 11 C13.57589844 10.61328125 13.15179688 10.2265625 12.71484375 9.828125 C8.69695194 6.2605903 4.74596229 3.51826571 0 1 C0 0.67 0 0.34 0 0 Z " fill="#373737" transform="translate(106,26)"/>
<path d="M0 0 C0 0.66 0 1.32 0 2 C-2.10009873 2.55723019 -4.20528465 3.09531745 -6.3125 3.625 C-7.48425781 3.92664063 -8.65601563 4.22828125 -9.86328125 4.5390625 C-13 5 -13 5 -16 3 C-13.89679937 2.49595192 -11.79240209 1.99689492 -9.6875 1.5 C-8.51574219 1.2215625 -7.34398437 0.943125 -6.13671875 0.65625 C-3 0 -3 0 0 0 Z " fill="#464646" transform="translate(290,113)"/>
<path d="M0 0 C0.99 0.33 1.98 0.66 3 1 C0.36 3.64 -2.28 6.28 -5 9 C-5.66 8.67 -6.32 8.34 -7 8 C-5.51218185 4.21282653 -3.38011591 2.22592999 0 0 Z " fill="#2D2D2D" transform="translate(746,31)"/>
<path d="M0 0 C2 3 2 3 2 6 C-1.96 6 -5.92 6 -10 6 C-9.67 5.34 -9.34 4.68 -9 4 C-6.03 4 -3.06 4 0 4 C0 2.68 0 1.36 0 0 Z " fill="#222222" transform="translate(368,158)"/>
<path d="M0 0 C-1.41166886 0.98635837 -2.82956184 1.96381255 -4.25 2.9375 C-5.43335938 3.75541016 -5.43335938 3.75541016 -6.640625 4.58984375 C-8.82636993 5.89622441 -10.5153801 6.54980511 -13 7 C-13 6.34 -13 5.68 -13 5 C-10.91796875 3.45703125 -10.91796875 3.45703125 -8.1875 1.8125 C-7.29417969 1.26207031 -6.40085937 0.71164063 -5.48046875 0.14453125 C-3 -1 -3 -1 0 0 Z " fill="#333333" transform="translate(303,107)"/>
<path d="M0 0 C0.66 0 1.32 0 2 0 C0.63044968 3.99452176 -1.0926199 6.92159754 -4 10 C-6.25 10.8125 -6.25 10.8125 -8 11 C-8 10.34 -8 9.68 -8 9 C-6.49802644 7.75923923 -4.99387685 6.52078183 -3.46875 5.30859375 C-1.71339865 3.74465039 -0.81385136 2.19739866 0 0 Z " fill="#323232" transform="translate(283,77)"/>
<path d="M0 0 C3.66786393 1.50349377 5.68910393 3.63728792 8.25 6.625 C8.95640625 7.44226562 9.6628125 8.25953125 10.390625 9.1015625 C10.92171875 9.72804688 11.4528125 10.35453125 12 11 C11.34 11.66 10.68 12.32 10 13 C8.89539041 11.58367866 7.79133212 10.16692736 6.6875 8.75 C5.76517578 7.56664062 5.76517578 7.56664062 4.82421875 6.359375 C3.19620982 4.2537703 1.59064137 2.13390657 0 0 Z " fill="#2A2A2A" transform="translate(122,37)"/>
<path d="M0 0 C2.00720923 0.28674418 4.0085944 0.61866701 6 1 C6 1.33 6 1.66 6 2 C4.35 2 2.7 2 1 2 C1 7.28 1 12.56 1 18 C0.67 18 0.34 18 0 18 C-0.19384179 15.18780295 -0.38036603 12.37545804 -0.5625 9.5625 C-0.61857422 8.76005859 -0.67464844 7.95761719 -0.73242188 7.13085938 C-0.8616295 5.08937889 -0.9351273 3.04453631 -1 1 C-0.67 0.67 -0.34 0.34 0 0 Z " fill="#555555" transform="translate(152,22)"/>
<path d="M0 0 C4.875 1.875 4.875 1.875 6 3 C7.51469448 3.23192865 9.03754562 3.41215238 10.5625 3.5625 C11.38878906 3.64628906 12.21507812 3.73007813 13.06640625 3.81640625 C13.70449219 3.87699219 14.34257813 3.93757812 15 4 C15 4.33 15 4.66 15 5 C7.36422588 6.71380708 7.36422588 6.71380708 4.06640625 4.98828125 C2.4375 3.625 2.4375 3.625 0 1 C0 0.67 0 0.34 0 0 Z " fill="#222222" transform="translate(675,158)"/>
<path d="M0 0 C3.5786304 1.65167557 6.74820188 3.78286492 10 6 C9.67 6.66 9.34 7.32 9 8 C7.49460339 7.05016642 5.99579653 6.08988109 4.5 5.125 C3.6646875 4.59132813 2.829375 4.05765625 1.96875 3.5078125 C1.3190625 3.01023437 0.669375 2.51265625 0 2 C0 1.34 0 0.68 0 0 Z " fill="#2E2E2E" transform="translate(745,122)"/>
<path d="M0 0 C4.43090471 1.20842856 6.98112756 2.51668565 10 6 C6.80389448 6 5.58282374 5.45328458 2.8125 4 C2.09707031 3.62875 1.38164063 3.2575 0.64453125 2.875 C0.10183594 2.58625 -0.44085937 2.2975 -1 2 C-0.67 1.34 -0.34 0.68 0 0 Z " fill="#323232" transform="translate(787,108)"/>
<path d="M0 0 C2.27618181 2.1677922 4.32954824 4.32727719 6 7 C5.67 7.99 5.34 8.98 5 10 C3.02 7.03 1.04 4.06 -1 1 C-0.67 0.67 -0.34 0.34 0 0 Z " fill="#2F2F2F" transform="translate(691,130)"/>
<path d="M0 0 C3.95820859 0.56545837 6.6659053 1.80902348 10 4 C9.34 4.66 8.68 5.32 8 6 C6.66402348 5.19185349 5.331275 4.37836819 4 3.5625 C3.2575 3.11003906 2.515 2.65757813 1.75 2.19140625 C1.1725 1.79824219 0.595 1.40507813 0 1 C0 0.67 0 0.34 0 0 Z " fill="#3A3A3A" transform="translate(745,92)"/>
<path d="M0 0 C3.36720387 1.39332574 4.9859524 2.9789286 7 6 C4 6 4 6 1.8125 4.125 C0 2 0 2 0 0 Z " fill="#6E6E6E" transform="translate(302,34)"/>
<path d="M0 0 C2.37948772 0.17625835 3.70225849 0.69719773 5.37890625 2.40234375 C6.62115486 3.90649092 7.81376056 5.45129851 9 7 C6 7 6 7 3.375 4.625 C1 2 1 2 0 0 Z " fill="#262626" transform="translate(692,33)"/>
<path d="M0 0 C-0.6875 2.375 -0.6875 2.375 -2 5 C-4.625 6.3125 -4.625 6.3125 -7 7 C-7 5 -7 5 -4.625 2.375 C-2 0 -2 0 0 0 Z " fill="#2B2B2B" transform="translate(801,128)"/>
<path d="M0 0 C0.598125 0.763125 1.19625 1.52625 1.8125 2.3125 C3.46959332 4.3483575 5.10297674 6.1978279 7 8 C4 8 4 8 1.8125 6.25 C0 4 0 4 0 0 Z " fill="#2C2C2C" transform="translate(56,114)"/>
<path d="M0 0 C0.99 0.33 1.98 0.66 3 1 C1.824375 1.928125 1.824375 1.928125 0.625 2.875 C-1.96837647 4.89858661 -1.96837647 4.89858661 -4 7 C-3.6875 4.625 -3.6875 4.625 -3 2 C-2.01 1.34 -1.02 0.68 0 0 Z " fill="#212121" transform="translate(60,79)"/>
</svg>
